solid OpenSCAD_Model
  facet normal -1 0 0
    outer loop
      vertex -10 -2.45 -1.5
      vertex -10 2.45 1.5
      vertex -10 2.45 -1.5
    endloop
  endfacet
  facet normal -1 -0 0
    outer loop
      vertex -10 2.45 1.5
      vertex -10 -2.45 -1.5
      vertex -10 -2.45 1.5
    endloop
  endfacet
  facet normal 0 0 1
    outer loop
      vertex 10 2.45 1.5
      vertex 9 1.5 1.5
      vertex 10 -2.45 1.5
    endloop
  endfacet
  facet normal 0 0 1
    outer loop
      vertex 10 2.45 1.5
      vertex 7 1.5 1.5
      vertex 9 1.5 1.5
    endloop
  endfacet
  facet normal 0 0 1
    outer loop
      vertex 7 1.5 1.5
      vertex -7 1.5 1.5
      vertex 7 -1.5 1.5
    endloop
  endfacet
  facet normal 0 0 1
    outer loop
      vertex 10 2.45 1.5
      vertex -7 1.5 1.5
      vertex 7 1.5 1.5
    endloop
  endfacet
  facet normal -0 0 1
    outer loop
      vertex -10 2.45 1.5
      vertex -7 1.5 1.5
      vertex 10 2.45 1.5
    endloop
  endfacet
  facet normal 0 0 1
    outer loop
      vertex -9 1.5 1.5
      vertex -10 2.45 1.5
      vertex -9 -1.5 1.5
    endloop
  endfacet
  facet normal 0 0 1
    outer loop
      vertex -7 1.5 1.5
      vertex -10 2.45 1.5
      vertex -9 1.5 1.5
    endloop
  endfacet
  facet normal -0 0 1
    outer loop
      vertex 9 -1.5 1.5
      vertex 10 -2.45 1.5
      vertex 9 1.5 1.5
    endloop
  endfacet
  facet normal -0 0 1
    outer loop
      vertex 7 -1.5 1.5
      vertex 10 -2.45 1.5
      vertex 9 -1.5 1.5
    endloop
  endfacet
  facet normal 0 0 1
    outer loop
      vertex -7 -1.5 1.5
      vertex 7 -1.5 1.5
      vertex -7 1.5 1.5
    endloop
  endfacet
  facet normal 0 0 1
    outer loop
      vertex 7 -1.5 1.5
      vertex -7 -1.5 1.5
      vertex 10 -2.45 1.5
    endloop
  endfacet
  facet normal 0 0 1
    outer loop
      vertex -10 -2.45 1.5
      vertex -7 -1.5 1.5
      vertex -9 -1.5 1.5
    endloop
  endfacet
  facet normal 0 0 1
    outer loop
      vertex -7 -1.5 1.5
      vertex -10 -2.45 1.5
      vertex 10 -2.45 1.5
    endloop
  endfacet
  facet normal 0 0 1
    outer loop
      vertex -10 -2.45 1.5
      vertex -9 -1.5 1.5
      vertex -10 2.45 1.5
    endloop
  endfacet
  facet normal 1 -0 0
    outer loop
      vertex 10 -2.45 1.5
      vertex 10 2.45 -1.5
      vertex 10 2.45 1.5
    endloop
  endfacet
  facet normal 1 0 0
    outer loop
      vertex 10 2.45 -1.5
      vertex 10 -2.45 1.5
      vertex 10 -2.45 -1.5
    endloop
  endfacet
  facet normal 0 0 -1
    outer loop
      vertex 10 -2.45 -1.5
      vertex 9 -1.5 -1.5
      vertex 10 2.45 -1.5
    endloop
  endfacet
  facet normal 0 0 -1
    outer loop
      vertex 10 -2.45 -1.5
      vertex 7 -1.5 -1.5
      vertex 9 -1.5 -1.5
    endloop
  endfacet
  facet normal 0 0 -1
    outer loop
      vertex 7 -1.5 -1.5
      vertex -7 -1.5 -1.5
      vertex 7 1.5 -1.5
    endloop
  endfacet
  facet normal 0 0 -1
    outer loop
      vertex 10 -2.45 -1.5
      vertex -7 -1.5 -1.5
      vertex 7 -1.5 -1.5
    endloop
  endfacet
  facet normal 0 0 -1
    outer loop
      vertex -10 -2.45 -1.5
      vertex -7 -1.5 -1.5
      vertex 10 -2.45 -1.5
    endloop
  endfacet
  facet normal -0 0 -1
    outer loop
      vertex -9 -1.5 -1.5
      vertex -10 -2.45 -1.5
      vertex -9 1.5 -1.5
    endloop
  endfacet
  facet normal -0 0 -1
    outer loop
      vertex -7 -1.5 -1.5
      vertex -10 -2.45 -1.5
      vertex -9 -1.5 -1.5
    endloop
  endfacet
  facet normal 0 0 -1
    outer loop
      vertex 9 1.5 -1.5
      vertex 10 2.45 -1.5
      vertex 9 -1.5 -1.5
    endloop
  endfacet
  facet normal 0 0 -1
    outer loop
      vertex 7 1.5 -1.5
      vertex 10 2.45 -1.5
      vertex 9 1.5 -1.5
    endloop
  endfacet
  facet normal 0 0 -1
    outer loop
      vertex -7 1.5 -1.5
      vertex 7 1.5 -1.5
      vertex -7 -1.5 -1.5
    endloop
  endfacet
  facet normal 0 0 -1
    outer loop
      vertex 7 1.5 -1.5
      vertex -7 1.5 -1.5
      vertex 10 2.45 -1.5
    endloop
  endfacet
  facet normal 0 0 -1
    outer loop
      vertex -10 2.45 -1.5
      vertex -7 1.5 -1.5
      vertex -9 1.5 -1.5
    endloop
  endfacet
  facet normal 0 0 -1
    outer loop
      vertex -7 1.5 -1.5
      vertex -10 2.45 -1.5
      vertex 10 2.45 -1.5
    endloop
  endfacet
  facet normal 0 0 -1
    outer loop
      vertex -10 2.45 -1.5
      vertex -9 1.5 -1.5
      vertex -10 -2.45 -1.5
    endloop
  endfacet
  facet normal 0 -1 0
    outer loop
      vertex -10 -2.45 -1.5
      vertex 10 -2.45 1.5
      vertex -10 -2.45 1.5
    endloop
  endfacet
  facet normal 0 -1 -0
    outer loop
      vertex 10 -2.45 1.5
      vertex -10 -2.45 -1.5
      vertex 10 -2.45 -1.5
    endloop
  endfacet
  facet normal 0 1 -0
    outer loop
      vertex 10 2.45 -1.5
      vertex -10 2.45 1.5
      vertex 10 2.45 1.5
    endloop
  endfacet
  facet normal 0 1 0
    outer loop
      vertex -10 2.45 1.5
      vertex 10 2.45 -1.5
      vertex -10 2.45 -1.5
    endloop
  endfacet
  facet normal 1 -0 0
    outer loop
      vertex -9 -1.5 1.5
      vertex -9 1.5 -1.5
      vertex -9 1.5 1.5
    endloop
  endfacet
  facet normal 1 0 0
    outer loop
      vertex -9 1.5 -1.5
      vertex -9 -1.5 1.5
      vertex -9 -1.5 -1.5
    endloop
  endfacet
  facet normal -1 0 0
    outer loop
      vertex -7 -1.5 -1.5
      vertex -7 1.5 1.5
      vertex -7 1.5 -1.5
    endloop
  endfacet
  facet normal -1 -0 0
    outer loop
      vertex -7 1.5 1.5
      vertex -7 -1.5 -1.5
      vertex -7 -1.5 1.5
    endloop
  endfacet
  facet normal 0 -1 0
    outer loop
      vertex -9 1.5 -1.5
      vertex -7 1.5 1.5
      vertex -9 1.5 1.5
    endloop
  endfacet
  facet normal 0 -1 -0
    outer loop
      vertex -7 1.5 1.5
      vertex -9 1.5 -1.5
      vertex -7 1.5 -1.5
    endloop
  endfacet
  facet normal 0 1 -0
    outer loop
      vertex -7 -1.5 -1.5
      vertex -9 -1.5 1.5
      vertex -7 -1.5 1.5
    endloop
  endfacet
  facet normal 0 1 0
    outer loop
      vertex -9 -1.5 1.5
      vertex -7 -1.5 -1.5
      vertex -9 -1.5 -1.5
    endloop
  endfacet
  facet normal 1 -0 0
    outer loop
      vertex 7 -1.5 1.5
      vertex 7 1.5 -1.5
      vertex 7 1.5 1.5
    endloop
  endfacet
  facet normal 1 0 0
    outer loop
      vertex 7 1.5 -1.5
      vertex 7 -1.5 1.5
      vertex 7 -1.5 -1.5
    endloop
  endfacet
  facet normal -1 0 0
    outer loop
      vertex 9 -1.5 -1.5
      vertex 9 1.5 1.5
      vertex 9 1.5 -1.5
    endloop
  endfacet
  facet normal -1 -0 0
    outer loop
      vertex 9 1.5 1.5
      vertex 9 -1.5 -1.5
      vertex 9 -1.5 1.5
    endloop
  endfacet
  facet normal 0 1 -0
    outer loop
      vertex 9 -1.5 -1.5
      vertex 7 -1.5 1.5
      vertex 9 -1.5 1.5
    endloop
  endfacet
  facet normal 0 1 0
    outer loop
      vertex 7 -1.5 1.5
      vertex 9 -1.5 -1.5
      vertex 7 -1.5 -1.5
    endloop
  endfacet
  facet normal 0 -1 0
    outer loop
      vertex 7 1.5 -1.5
      vertex 9 1.5 1.5
      vertex 7 1.5 1.5
    endloop
  endfacet
  facet normal 0 -1 -0
    outer loop
      vertex 9 1.5 1.5
      vertex 7 1.5 -1.5
      vertex 9 1.5 -1.5
    endloop
  endfacet
endsolid OpenSCAD_Model
